<mxfile host="Electron" agent="Mozilla/5.0 (Macintosh; Intel Mac OS X 10_15_7) AppleWebKit/537.36 (KHTML, like Gecko) draw.io/26.0.4 Chrome/128.0.6613.186 Electron/32.2.5 Safari/537.36" version="26.0.4">
  <diagram name="PÃ¡gina-1" id="u6VZfzfbu3u_6Dlc-Je4">
    <mxGraphModel dx="984" dy="718" grid="1" gridSize="10" guides="1" tooltips="1" connect="1" arrows="1" fold="1" page="1" pageScale="1" pageWidth="827" pageHeight="1169" math="0" shadow="0">
      <root>
        <mxCell id="0" />
        <mxCell id="1" parent="0" />
        <mxCell id="nqjHaT351cwLAyVtEu64-1" value="&lt;font style=&quot;font-size: 36px;&quot;&gt;&lt;b&gt;Aerolinea&lt;/b&gt;&lt;/font&gt;" style="text;html=1;align=center;verticalAlign=middle;resizable=0;points=[];autosize=1;strokeColor=none;fillColor=none;" vertex="1" parent="1">
          <mxGeometry x="90" y="155" width="190" height="60" as="geometry" />
        </mxCell>
        <mxCell id="nqjHaT351cwLAyVtEu64-8" style="edgeStyle=orthogonalEdgeStyle;rounded=0;orthogonalLoop=1;jettySize=auto;html=1;exitX=0.5;exitY=1;exitDx=0;exitDy=0;entryX=0.5;entryY=0;entryDx=0;entryDy=0;" edge="1" parent="1" source="nqjHaT351cwLAyVtEu64-2" target="nqjHaT351cwLAyVtEu64-3">
          <mxGeometry relative="1" as="geometry" />
        </mxCell>
        <mxCell id="nqjHaT351cwLAyVtEu64-2" value="Cliente" style="rounded=0;whiteSpace=wrap;html=1;" vertex="1" parent="1">
          <mxGeometry x="354" y="270" width="120" height="60" as="geometry" />
        </mxCell>
        <mxCell id="nqjHaT351cwLAyVtEu64-9" style="edgeStyle=orthogonalEdgeStyle;rounded=0;orthogonalLoop=1;jettySize=auto;html=1;exitX=0;exitY=0.5;exitDx=0;exitDy=0;entryX=1;entryY=0.5;entryDx=0;entryDy=0;" edge="1" parent="1" source="nqjHaT351cwLAyVtEu64-3" target="nqjHaT351cwLAyVtEu64-7">
          <mxGeometry relative="1" as="geometry" />
        </mxCell>
        <mxCell id="nqjHaT351cwLAyVtEu64-3" value="Compra Vuelos" style="ellipse;whiteSpace=wrap;html=1;aspect=fixed;" vertex="1" parent="1">
          <mxGeometry x="374" y="360" width="80" height="80" as="geometry" />
        </mxCell>
        <mxCell id="nqjHaT351cwLAyVtEu64-11" style="edgeStyle=orthogonalEdgeStyle;rounded=0;orthogonalLoop=1;jettySize=auto;html=1;exitX=0.5;exitY=1;exitDx=0;exitDy=0;entryX=0.5;entryY=0;entryDx=0;entryDy=0;" edge="1" parent="1" source="nqjHaT351cwLAyVtEu64-6" target="nqjHaT351cwLAyVtEu64-7">
          <mxGeometry relative="1" as="geometry" />
        </mxCell>
        <mxCell id="nqjHaT351cwLAyVtEu64-6" value="Aerolinea" style="rounded=0;whiteSpace=wrap;html=1;" vertex="1" parent="1">
          <mxGeometry x="170" y="270" width="120" height="60" as="geometry" />
        </mxCell>
        <mxCell id="nqjHaT351cwLAyVtEu64-7" value="Registra Vuelos" style="ellipse;whiteSpace=wrap;html=1;aspect=fixed;" vertex="1" parent="1">
          <mxGeometry x="190" y="360" width="80" height="80" as="geometry" />
        </mxCell>
      </root>
    </mxGraphModel>
  </diagram>
</mxfile>
